<svg width="390" height="97" viewBox="0 0 390 97" fill="none" xmlns="http://www.w3.org/2000/svg">
<mask id="mask0_357_410" style="mask-type:luminance" maskUnits="userSpaceOnUse" x="64" y="43" width="270" height="6">
<path d="M64.4741 43.4539H333.843V48.5001H64.4741V43.4539Z" fill="white"/>
</mask>
<g mask="url(#mask0_357_410)">
<path fill-rule="evenodd" clip-rule="evenodd" d="M333.487 45.1264C333.397 45.8457 331.667 45.5299 330.797 45.5113C329.493 45.7741 331.701 46.3634 329.983 46.5041C325.192 46.305 320.733 46.4324 315.852 46.7562C314.079 46.6686 317.48 46.5837 316.026 47.0005C314.055 47.1173 310.08 46.8226 306.438 46.6023C302.295 47.0509 295.949 47.3801 290.714 47.1889C290.458 47.5473 292.111 47.3164 292.631 47.6004C276.507 47.6482 259.688 47.5792 242.298 47.7278C240.21 47.5526 238.165 47.4146 236.253 47.4677C233.796 47.4278 231.498 47.7198 229.109 48.0623C224.602 47.7703 219.895 47.5871 215.13 47.611C206.79 47.5818 198.101 47.9667 189.427 48.195C184.628 47.9508 179.803 47.9136 175.724 47.5871C174.95 47.9667 174.093 47.8605 173.567 48.3357C173.197 47.9349 172.535 48.2056 172.397 48.2746C171.917 48.203 171.175 47.8711 170.347 47.465C168.686 47.7968 165.29 48.0782 163.035 47.9322C159.734 47.8844 156.512 47.6269 152.257 47.388C144.389 47.5606 135.727 47.4093 128.116 47.7411C122.464 47.6535 116.751 47.9773 111.262 47.9057C103.114 47.911 95.2406 47.7809 87.715 48.2985C84.9904 48.1605 82.1338 48.5268 79.4472 48.3224C76.3986 48.4737 74.0301 47.8366 70.7874 48.187C68.1608 47.8021 68.1068 47.6163 64.7841 48.2959C64.7321 46.8279 67.7427 46.9952 69.133 46.7456C70.1173 46.074 71.3275 45.7342 72.4097 45.7502C78.097 45.2538 82.6279 45.0281 88.2211 44.6353C91.8759 44.4017 93.1082 44.4468 97.5011 44.4919C98.7174 44.5556 99.6155 44.322 101.136 44.2424C104.749 44.2318 108.928 44.5875 112.82 44.2769C114.849 44.5344 117.121 44.2902 119.382 43.8416C120.548 44.1946 121.886 44.3645 123.127 44.6751C123.837 44.2928 124.355 44.0486 124.801 43.7035C126.861 44.0194 128.658 44.2159 130.482 44.253C132.501 44.1176 134.573 43.8601 136.675 43.592C140.794 43.7832 145.011 44.0858 149.27 44.2159C158.388 44.1654 168.022 44.0486 177.482 43.9106C192.263 44.1973 207.491 43.8495 222.128 43.7248C226.883 43.6239 231.946 43.8017 236.773 44.1097C247.977 43.4434 261.232 43.815 273.287 44.0327C288.998 43.5894 305.469 43.9902 319.861 44.5079C325.3 44.8078 329.939 44.6884 333.487 45.1264Z" fill="white"/>
</g>
</svg>
